<svg width="64" height="22" viewBox="0 0 64 22" fill="none" xmlns="http://www.w3.org/2000/svg">
<path fill-rule="evenodd" clip-rule="evenodd" d="M22.3305 10.7517C22.3305 4.81428 17.3311 0 11.1653 0C4.99944 0 0 4.81428 0 10.7517C0 16.118 4.08229 20.566 9.42068 21.3734V13.8606H6.58501V10.7517H9.42068V8.38299C9.42068 5.68881 11.088 4.19941 13.6381 4.19941C14.8598 4.19941 16.1378 4.40965 16.1378 4.40965V7.05582H14.7292C13.343 7.05582 12.9093 7.88428 12.9093 8.73578V10.7517H16.0057L15.5112 13.8606H12.9098V21.3743C18.2482 20.5675 22.3305 16.1194 22.3305 10.7517Z" fill="#274C5B"/>
<path d="M63.2561 3.38489C62.3586 3.77486 61.409 4.03177 60.4374 4.14752C61.4585 3.54957 62.2265 2.59962 62.5972 1.47583C61.6317 2.04037 60.5772 2.43648 59.4789 2.64719C59.0163 2.16246 58.4601 1.77685 57.8439 1.51379C57.2277 1.25073 56.5645 1.11571 55.8945 1.11695C53.182 1.11695 50.9868 3.28022 50.9868 5.94692C50.9849 6.31785 51.0274 6.68767 51.1134 7.04849C49.1683 6.9573 47.2636 6.46111 45.5213 5.59165C43.7789 4.72219 42.2373 3.49862 40.9949 1.99921C40.559 2.73398 40.3285 3.57233 40.3275 4.42665C40.3275 6.10144 41.2012 7.58183 42.5206 8.44913C41.7389 8.43058 40.9732 8.22368 40.2886 7.84601V7.90582C40.2886 10.2485 41.9833 12.1975 44.2263 12.6411C43.8045 12.7535 43.3699 12.8105 42.9334 12.8106C42.6236 12.8111 42.3146 12.781 42.0107 12.7208C42.6343 14.6399 44.4491 16.0355 46.5989 16.0754C44.8521 17.4217 42.7074 18.1493 40.5019 18.144C40.1104 18.1434 39.7193 18.1201 39.3306 18.0742C41.5742 19.5068 44.1822 20.2646 46.8442 20.2574C55.8841 20.2574 60.8227 12.8953 60.8227 6.51017C60.8227 6.30082 60.8172 6.09147 60.8072 5.8871C61.7658 5.20526 62.5951 4.35792 63.2561 3.38489Z" fill="#274C5B"/>
</svg>
