<svg width="48" height="49" viewBox="0 0 48 49" fill="none" xmlns="http://www.w3.org/2000/svg">
<rect width="48" height="48.0485" rx="11.1481" fill="#EEF4FF"/>
<g clip-path="url(#clip0_1005_5878)">
<path d="M33.3701 20.6511C33.2537 20.4057 33.0064 20.2492 32.7349 20.2492H25.6828L29.9513 13.0184C30.0797 12.8009 30.0817 12.531 29.9565 12.3115C29.8314 12.0921 29.5983 11.9564 29.3458 11.9565L23.3208 11.9572C23.0708 11.9573 22.8395 12.0902 22.7136 12.3063L14.8058 25.8756C14.6789 26.0932 14.678 26.3622 14.8034 26.5808C14.9288 26.7992 15.1613 26.934 15.4131 26.934H22.4203L20.3794 35.1062C20.2995 35.426 20.4521 35.7584 20.7465 35.9062C20.8469 35.9565 20.9545 35.9808 21.0612 35.9808C21.2672 35.9808 21.4692 35.8902 21.6063 35.7218L33.2798 21.3979C33.4514 21.1874 33.4866 20.8966 33.3701 20.6511Z" fill="#3F51B5"/>
</g>
<defs>
<clipPath id="clip0_1005_5878">
<rect width="24" height="24.0243" fill="white" transform="translate(12.074 11.9565)"/>
</clipPath>
</defs>
</svg>
