<svg width="48" height="49" viewBox="0 0 48 49" fill="none" xmlns="http://www.w3.org/2000/svg">
<rect width="48" height="48.0485" rx="11.1481" fill="#EEF4FF"/>
<path d="M34.4578 24.7939L32.5911 31.3443C32.3158 32.306 31.4271 32.9779 30.4288 32.9779H20.3241C19.9093 32.9779 19.5741 32.6416 19.5741 32.2272V21.7165C19.5741 21.5551 19.6258 21.3975 19.7226 21.2683L23.7666 15.8328C24.2151 15.2705 24.8616 14.9597 25.5546 14.9597C26.8063 14.9597 27.8241 15.9785 27.8241 17.2315V20.9658H31.5756C32.5243 20.9658 33.3958 21.4005 33.9666 22.1587C34.5396 22.9185 34.7181 23.8787 34.4578 24.7939Z" fill="#3F51B5"/>
<path d="M17.3241 20.9658H14.3241C13.9093 20.9658 13.5741 21.3022 13.5741 21.7166V32.2272C13.5741 32.6416 13.9093 32.978 14.3241 32.978H17.3241C17.7388 32.978 18.0741 32.6416 18.0741 32.2272V21.7166C18.0741 21.3022 17.7388 20.9658 17.3241 20.9658ZM15.8241 31.1011C15.2031 31.1011 14.6991 30.5965 14.6991 29.9749C14.6991 29.3533 15.2031 28.8488 15.8241 28.8488C16.4451 28.8488 16.9491 29.3533 16.9491 29.9749C16.9491 30.5965 16.4451 31.1011 15.8241 31.1011Z" fill="#3F51B5"/>
</svg>
