<svg width="48" height="49" viewBox="0 0 48 49" fill="none" xmlns="http://www.w3.org/2000/svg">
<rect width="48" height="48.0485" rx="11.1481" fill="#EEF4FF"/>
<path d="M32.9641 23.5682C33.2388 23.2871 33.4301 22.9352 33.5166 22.5516C33.6031 22.1681 33.5815 21.768 33.4541 21.396C33.3346 21.023 33.1128 20.691 32.814 20.4379C32.5152 20.1848 32.1514 20.0208 31.7641 19.9646L27.4741 19.3039C27.4541 19.2981 27.4356 19.2879 27.4201 19.2741C27.4045 19.2602 27.3922 19.243 27.3841 19.2238L25.5041 15.2198C25.3392 14.8448 25.069 14.526 24.7263 14.302C24.3837 14.0781 23.9833 13.9588 23.5741 13.9585C23.1696 13.9568 22.7732 14.0721 22.4326 14.2906C22.092 14.509 21.8217 14.8212 21.6541 15.1898L19.7741 19.1938C19.7638 19.2133 19.7497 19.2305 19.7325 19.2443C19.7152 19.2581 19.6954 19.2681 19.6741 19.2739L15.3941 19.9646C15.0062 20.0224 14.6419 20.1869 14.3418 20.4396C14.0417 20.6923 13.8175 21.0234 13.6941 21.396C13.5714 21.7693 13.5531 22.1691 13.6413 22.552C13.7294 22.9349 13.9206 23.2863 14.1941 23.5682L17.3541 26.8215C17.3632 26.842 17.3679 26.8642 17.3679 26.8866C17.3679 26.909 17.3632 26.9312 17.3541 26.9516L16.6141 31.4962C16.5453 31.892 16.5902 32.2992 16.7434 32.6705C16.8967 33.0418 17.1521 33.3619 17.4799 33.5936C17.8078 33.8253 18.1946 33.9591 18.5954 33.9794C18.9962 33.9998 19.3945 33.9058 19.7441 33.7085L23.4741 31.6364C23.4926 31.6267 23.5132 31.6217 23.5341 31.6217C23.555 31.6217 23.5756 31.6267 23.5941 31.6364L27.3241 33.7085C27.6741 33.9016 28.0714 33.9922 28.4704 33.97C28.8695 33.9478 29.2542 33.8136 29.5807 33.5828C29.9072 33.3521 30.1622 33.034 30.3167 32.6651C30.4711 32.2961 30.5187 31.891 30.4541 31.4962L29.7641 26.9717C29.7536 26.9534 29.748 26.9327 29.748 26.9116C29.748 26.8905 29.7536 26.8698 29.7641 26.8515L32.9641 23.5682Z" fill="#3F51B5"/>
</svg>
